inDegrees=yes
name=ik_xsens_converted_data
DataType=double
version=3
OpenSimVersion=4.5-2023-11-26-efcdfd3eb
endheader
time	pelvis_tilt	pelvis_list	pelvis_rotation	pelvis_tx	pelvis_ty	pelvis_tz	hip_flexion_r	hip_adduction_r	hip_rotation_r	knee_angle_r	knee_angle_r_beta	ankle_angle_r	subtalar_angle_r	mtp_angle_r	hip_flexion_l	hip_adduction_l	hip_rotation_l	knee_angle_l	knee_angle_l_beta	ankle_angle_l	subtalar_angle_l	mtp_angle_l	lumbar_extension	lumbar_bending	lumbar_rotation	arm_flex_r	arm_add_r	arm_rot_r	elbow_flex_r	pro_sup_r	wrist_flex_r	wrist_dev_r	arm_flex_l	arm_add_l	arm_rot_l	elbow_flex_l	pro_sup_l	wrist_flex_l	wrist_dev_l
34.5333	-1.438569776559351	0.4988263110690349	-117.0349523324334	0	0.93	0	44.99870634241394	-9.999999988573268	0	59.98870262217044	1.04700037475663	-4.999999851047217	0	0	44.99870634241394	-9.999999988573268	0	59.98870262217044	1.04700037475663	-4.999999851047217	0	0	-1.028370881101633	2.247260299959361	25.97064816454234	11.25671825087887	-0.432381413496378	29.37600838382436	0.09554413482204017	20.99736657584342	0	5.000000137526114	7.09292587564719	-9.626899716361375	12.55673777731108	0.03493991413923744	46.62244856071752	0	5.000000137526114
34.55	-1.719685129305413	0.5374693221396655	-116.377210986768	0	0.93	0	44.99870666083584	-9.999999988573268	0	59.98870483793473	1.047000413429012	-4.999999851047217	0	0	44.99870666083584	-9.999999988573268	0	59.98870483793473	1.047000413429012	-4.999999851047217	0	0	-0.9773721437663011	2.357307531032001	25.49360244082947	11.2767322696646	-0.3363313662718566	29.0924738851071	0.09372153766604546	21.21593430169411	0	5.000000137526114	6.852503734067297	-9.673679083962657	12.58385487966295	0.03468270282317146	46.71141156424417	0	5.000000137526114
34.5667	-2.083252521320194	0.3432675988682492	-115.6922967344672	0	0.93	0	44.99870704901198	-9.999999988573268	0	59.98870753610556	1.047000460520977	-4.999999851047217	0	0	44.99870704901198	-9.999999988573268	0	59.98870753610556	1.047000460520977	-4.999999851047217	0	0	-1.211783227564726	2.438124488419921	24.96347306743762	11.31019233551963	-0.2488647149937364	28.78591279208871	0.09359014542786567	21.41833679064355	0	5.000000137526114	6.629867855182642	-9.7120955814088	12.72284206499102	0.03415163978807584	46.72861949784927	0	5.000000137526114
34.5833	-2.443147112862851	-0.1207876792459286	-114.9769472864183	0	0.93	0	44.99870764595287	-9.999999988573268	0	59.98871167726247	1.0470005327978	-4.999999851047217	0	0	44.99870764595287	-9.999999988573268	0	59.98871167726247	1.0470005327978	-4.999999851047217	0	0	-1.810606176721715	2.397096891097737	24.4324046218798	11.43517055202479	-0.2116201894823563	28.48706100437732	0.09375996697606753	21.57503540360798	0	5.000000137526114	6.550590431544473	-9.713149959261983	13.02506560827549	0.03323141507031949	46.68549350543617	0	5.000000137526114
34.6	-2.720605182062318	-0.7367874466155904	-114.321986912982	0	0.93	0	44.9987082789539	-9.999999988573268	0	59.98871606668512	1.047000609407678	-4.999999851047217	0	0	44.9987082789539	-9.999999988573268	0	59.98871606668512	1.047000609407678	-4.999999851047217	0	0	-2.551902284534866	2.226987438579849	24.05308117477057	11.56373858912825	-0.1827129981519897	28.15491879591388	0.09393091672887796	21.61175104302114	0	5.000000137526114	6.544856515748717	-9.691673245103921	13.50165252012041	0.03202205920040381	46.69345910329815	0	5.000000137526114
34.6167	-2.864185093320505	-1.378786361302081	-113.7351841332045	0	0.93	0	44.99870900245755	-9.999999988573268	0	59.98872107906508	1.047000696890211	-4.999999851047217	0	0	44.99870900245755	-9.999999988573268	0	59.98872107906508	1.047000696890211	-4.999999851047217	0	0	-3.314963007600209	1.914895777152712	23.81590601633761	11.69365491772052	-0.1915037582963113	27.83114356979245	0.09419821779901769	21.60531626807927	0	5.000000137526114	6.631736465217981	-9.709946133476162	14.09733871846664	0.03070310932520261	46.77617250254512	0	5.000000137526114
34.6333	-2.901859957927894	-1.987492701578073	-113.1692195827853	0	0.93	0	44.99870969600441	-9.999999988573268	0	59.98872588394269	1.047000780751146	-4.999999851047217	0	0	44.99870969600441	-9.999999988573268	0	59.98872588394269	1.047000780751146	-4.999999851047217	0	0	-4.005805424071479	1.533320780314839	23.62451860798357	11.78302407033157	-0.1804448067708399	27.54777862129893	0.0949119189812016	21.57638222099724	0	5.000000137526114	6.735987941888644	-9.755289324176346	14.71780917673596	0.02955466368581938	46.94285665196738	0	5.000000137526114
34.65	-2.913264695887416	-2.520150693213544	-112.5683499450197	0	0.93	0	44.99871042915393	-9.999999988573268	0	59.98873096396531	1.047000869414267	-4.999999851047217	0	0	44.99871042915393	-9.999999988573268	0	59.98873096396531	1.047000869414267	-4.999999851047217	0	0	-4.58637287897651	1.150156507690248	23.46363705698549	11.80235658417079	-0.1543443178227042	27.27475681234747	0.09300153351151197	21.54634123134288	0	5.000000137526114	6.866653904918125	-9.878617782851711	15.35543638986808	0.02853391136681635	47.22840172510795	0	5.000000137526114
34.6667	-2.911322085432095	-2.965187595420311	-111.9002815218079	0	0.93	0	44.99871116153118	-9.999999988573268	0	59.98873603965565	1.047000958001775	-4.999999851047217	0	0	44.99871116153118	-9.999999988573268	0	59.98873603965565	1.047000958001775	-4.999999851047217	0	0	-5.055713691010617	0.8097757755075352	23.18496197098763	11.76674458586303	-0.09144929116092616	27.0825091445052	0.09390728715917686	21.55864418167797	0	5.000000137526114	6.972072909785807	-10.03610056840006	15.87879996902477	0.02788614586608381	47.56817916823481	0	5.000000137526114
34.6833	-2.94920818800361	-3.254989369112271	-111.1631169219866	0	0.93	0	44.99871144105911	-9.999999988573268	0	59.98873798792489	1.047000992005488	-4.999999851047217	0	0	44.99871144105911	-9.999999988573268	0	59.98873798792489	1.047000992005488	-4.999999851047217	0	0	-5.259177578512359	0.6868798184443271	22.84712617034161	11.53498862952122	-0.07851734777752326	27.01778170526858	0.09260435853696945	21.4997223127161	0	5.000000137526114	6.951324424215949	-10.16223187581584	16.27957214798124	0.02741136899226139	48.02012541443537	0	5.000000137526114
34.7	-2.907672809538253	-3.555553213375963	-110.3433719645978	0	0.93	0	44.998712094955	-9.999999988573268	0	59.98874252469597	1.04700107118708	-4.999999851047217	0	0	44.998712094955	-9.999999988573268	0	59.98874252469597	1.04700107118708	-4.999999851047217	0	0	-5.499954200472762	0.4247644758020174	22.24171870236391	11.38831798548316	0.02039868766056094	27.16447746187123	0.09278406133210217	21.55861669808141	0	5.000000137526114	7.03001578042259	-10.38562475486661	16.36258993916215	0.02725466429141704	48.52410524457778	0	5.000000137526114
34.7167	-2.86115648412499	-3.737482090957926	-109.483711645941	0	0.93	0	44.99871288561688	-9.999999988573268	0	59.98874800688954	1.047001166869409	-4.999999851047217	0	0	44.99871288561688	-9.999999988573268	0	59.98874800688954	1.047001166869409	-4.999999851047217	0	0	-5.630425770765562	0.2762540793590428	21.67165168151696	11.22577363897856	0.04015829193120823	27.41098904057611	0.09233140375136084	21.50855292244679	0	5.000000137526114	7.112824001233836	-10.50863417496974	16.42109191167057	0.02721859274091604	49.03741715230728	0	5.000000137526114
34.7333	-2.761374014194359	-3.863500331808634	-108.5945690875465	0	0.93	0	44.99871373177179	-9.999999988573268	0	59.98875387234029	1.047001269240836	-4.999999851047217	0	0	44.99871373177179	-9.999999988573268	0	59.98875387234029	1.047001269240836	-4.999999851047217	0	0	-5.754097831106628	0.1149211683204419	21.0523185213992	11.13257118806943	0.007260447867246379	27.78938375012132	0.09235201940200653	21.48210500926369	0	5.000000137526114	7.246433065449351	-10.57686987285218	16.40215446927252	0.02732420543167302	49.46927833034645	0	5.000000137526114
34.75	-2.607124616446899	-3.927158260780574	-107.6705946573716	0	0.93	0	44.99871436684767	-9.999999988573268	0	59.98875827788231	1.04700134613205	-4.999999851047217	0	0	44.99871436684767	-9.999999988573268	0	59.98875827788231	1.04700134613205	-4.999999851047217	0	0	-5.830186192307283	-0.05511949362182037	20.44380207402011	11.09137842375621	-0.09140473151720126	28.19449677699333	0.09305038667175722	21.51353573011032	0	5.000000137526114	7.400685077717156	-10.56120047465551	16.43871507529457	0.02745699947630858	49.7630882514514	0	5.000000137526114
34.7667	-2.462192619963705	-3.959180747547712	-106.7048759658301	0	0.93	0	44.99871481959432	-9.999999988573268	0	59.98876142223413	1.047001401011342	-4.999999851047217	0	0	44.99871481959432	-9.999999988573268	0	59.98876142223413	1.047001401011342	-4.999999851047217	0	0	-5.88491538952441	-0.1975432246516248	19.85395892014983	11.06146198145734	-0.2443852974657216	28.53399290825207	0.09295788727617001	21.58143233948887	0	5.000000137526114	7.548330643014527	-10.5094191314924	16.52139756043429	0.0275581829061237	49.90740155250792	0	5.000000137526114
34.7833	-2.412146969849367	-4.04620758743017	-105.7323992033597	0	0.93	0	44.99871533322899	-9.999999988573268	0	59.98876498748347	1.047001463236682	-4.999999851047217	0	0	44.99871533322899	-9.999999988573268	0	59.98876498748347	1.047001463236682	-4.999999851047217	0	0	-6.029343598333428	-0.2462089032375679	19.22690783605859	11.05659880682439	-0.4126752311299373	28.85841984742627	0.09294969651830146	21.7226807458462	0	5.000000137526114	7.665816861281258	-10.40484198201536	16.56193496490946	0.02772359362653952	49.91203372651191	0	5.000000137526114
